HIERARCHY
ROOT pelvis
{
  OFFSET 0 100 0
  CHANNELS 6 Xposition Yposition Zposition Zrotation Xrotation Yrotation
  JOINT pelvis_right_femur
  {
    OFFSET -10.78128 -3.44521 -0.5502486
    CHANNELS 3 Zrotation Xrotation Yrotation
    JOINT right_femur_tibia
    {
      OFFSET -0.8047443 -44.0398 -0.1307829
      CHANNELS 3 Zrotation Xrotation Yrotation
      JOINT right_tibia_foot
      {
        OFFSET 3.006224 -47.83518 -5
        CHANNELS 3 Zrotation Xrotation Yrotation
        End Site
        {
          OFFSET 0 -5 15
        }
      }
    }
  }
  JOINT pelvis_left_femur
  {
    OFFSET 10.78128 -3.44521 -0.5502486
    CHANNELS 3 Zrotation Xrotation Yrotation
    JOINT left_femur_tibia
    {
      OFFSET 0.8047443 -44.0398 -0.1307829
      CHANNELS 3 Zrotation Xrotation Yrotation
      JOINT left_tibia_foot
      {
        OFFSET -4.370144 -48.10324 -4.275266
        CHANNELS 3 Zrotation Xrotation Yrotation
        End Site
        {
          OFFSET 0 -5 15
        }
      }
    }
  }
  JOINT pelvis_spine1
  {
    OFFSET 0 6.468898 -3.129235
    CHANNELS 3 Zrotation Xrotation Yrotation
    JOINT spine1
    {
      OFFSET 0 23.15396 4.99043
      CHANNELS 3 Zrotation Xrotation Yrotation
      JOINT spine2
      {
        OFFSET 0 20.79997 -5.064912
        CHANNELS 3 Zrotation Xrotation Yrotation
        JOINT neck
        {
          OFFSET 0 14.38658 9.616178
          CHANNELS 3 Zrotation Xrotation Yrotation
          End Site
          {
            OFFSET 0 20 0
          }
        }
      }
      JOINT right_manubrium
      {
        OFFSET -5.722621 16.35077 3.967754
        CHANNELS 3 Zrotation Xrotation Yrotation
        JOINT right_clavicle
        {
          OFFSET -13.16364 1.694482 -4.693211
          CHANNELS 3 Zrotation Xrotation Yrotation
          JOINT right_humerus
          {
            OFFSET -28.5034 -0.3100689 -2.792744
            CHANNELS 3 Zrotation Xrotation Yrotation
            JOINT right_radius
            {
              OFFSET -25.15693 0.02248979 -1.271978
              CHANNELS 3 Zrotation Xrotation Yrotation
              End Site
              {
                OFFSET -15 0 0
              }
            }
          }
        }
      }
      JOINT left_manubrium
      {
        OFFSET 5.722621 16.35077 3.967754
        CHANNELS 3 Zrotation Xrotation Yrotation
        JOINT left_clavicle
        {
          OFFSET 13.16364 1.694482 -4.693211
          CHANNELS 3 Zrotation Xrotation Yrotation
          JOINT left_humerus
          {
            OFFSET 29.39168 -1.063119 -2.237045
            CHANNELS 3 Zrotation Xrotation Yrotation
            JOINT left_radius
            {
              OFFSET 24.59957 -0.9528479 0.9047498
              CHANNELS 3 Zrotation Xrotation Yrotation
              End Site
              {
                OFFSET 15 -0 -0
              }
            }
          }
        }
      }
    }
  }
}
MOTION
Frames: 7
Frame Time: 0.0416666666667
31.35216 102.7427 249.1456 2.023952 -8.660269 -6.324326 -0.5996981 21.64457 7.513849 -0 16.11034 -0 7.229845 -14.07827 -0.01897354 -1.570435 -23.71131 -5.900126 -0 30.46319 -0 -7.316837 -6.186266 19.88987 -1.711425 -0.7253264 9.902532 -1.597233 10.1618 -2.233204 2.531166 21.84609 5.130165 1.787308 -14.65226 7.259554 1.717217 -21.06671 11.5657 80.3852 22.47012 -5.538487 -0 0 25.6878 -25.3713 14.10101 13.3038 4.615882 -14.58213 -3.009255 -93.01604 21.60613 24.64899 0 0 -12.05289 -2.730532 7.064074 15.90693
31.92879 102.4604 255.9182 2.154371 -8.654062 -6.405182 -1.273145 21.55818 7.239519 -0 21.13415 -0 7.837625 -13.14625 -0.2850547 -2.408334 -22.55426 -6.773496 -0 28.24707 -0 -7.29782 -6.690506 19.53726 -1.948569 -0.9622409 9.729545 -1.762107 9.765879 -2.151723 2.598106 21.93536 5.120024 1.628524 -14.59705 7.470062 1.607327 -20.85989 11.27294 80.61146 22.23603 -5.297994 -0 0 25.62424 -25.33018 13.93864 13.27347 4.468004 -13.96493 -3.009722 -92.95281 21.93644 24.745 0 0 -11.17051 -2.946142 7.113303 16.24438
32.52724 102.4519 262.7625 2.287739 -8.742313 -6.271411 -1.816411 20.36602 6.784799 -0 26.53393 -0 8.283725 -11.95141 -0.8389466 -3.410154 -20.24954 -7.700824 -0 26.79757 -0 -7.220726 -7.33196 19.05413 -2.211971 -1.14591 9.37885 -1.84104 9.448466 -2.205799 2.644079 22.1041 5.134455 1.46179 -14.50005 7.699652 1.616678 -20.38407 10.98942 81.13967 22.18666 -5.60611 -0 0 24.91332 -25.10747 13.83927 13.07401 4.316168 -13.60088 -3.078995 -92.53789 22.33689 24.21385 0 0 -10.67193 -3.027221 7.233441 16.42144
33.1213 102.7397 269.5471 2.394742 -8.940598 -5.913986 -2.153585 17.95756 6.150579 -0 31.95332 -0 8.519222 -10.7194 -1.66484 -4.399324 -16.95237 -8.549274 -0 25.77968 -0 -7.092521 -8.161652 18.48832 -2.465273 -1.193345 8.823659 -1.83568 9.210049 -2.387248 2.654615 22.35735 5.177413 1.2798 -14.34898 7.940856 1.719666 -19.68681 10.73305 81.93737 22.31101 -6.400324 -0 0 23.64251 -24.70738 13.79733 12.72243 4.19293 -13.53157 -3.20963 -91.75277 22.79329 23.00905 0 0 -10.64299 -2.952626 7.436007 16.39188
33.6878 103.293 276.1452 2.470554 -9.215305 -5.329054 -2.292806 14.41111 5.38617 -0 36.89091 -0 8.523974 -9.600332 -2.695006 -5.264018 -12.88773 -9.249147 -0 24.93341 -0 -6.93078 -9.180857 17.86846 -2.688429 -1.085962 8.074953 -1.75044 9.032053 -2.689612 2.633604 22.68015 5.241734 1.08588 -14.14581 8.185472 1.866094 -18.82007 10.49846 82.95776 22.57043 -7.597009 -0 0 21.9475 -24.14984 13.79557 12.24744 4.127708 -13.75116 -3.389392 -90.62473 23.27421 21.15907 0 0 -11.10346 -2.7193 7.722887 16.13739
34.20922 104.0186 282.4788 2.527094 -9.480199 -4.532474 -2.298677 9.970478 4.579453 -0 40.5826 -0 8.288247 -8.695801 -3.81166 -5.938407 -8.35314 -9.783389 -0 24.05477 -0 -6.764073 -10.34726 17.20346 -2.876855 -0.8640056 7.176692 -1.589997 8.875637 -3.11231 2.604983 23.03796 5.307385 0.895185 -13.90429 8.423425 1.974404 -17.83962 10.25767 84.1331 22.9042 -9.09104 -0 0 20.01718 -23.46801 13.80434 11.68909 4.154908 -14.21588 -3.600101 -89.22174 23.73856 18.75222 0 0 -12.0285 -2.336456 8.090175 15.65646
34.67298 104.7659 288.5371 2.576762 -9.636271 -3.563589 -2.240982 4.952568 3.81674 -0 42.26053 -0 7.807241 -8.070165 -4.888955 -6.390163 -3.654709 -10.16875 -0 23.00611 -0 -6.623015 -11.59856 16.49313 -3.035182 -0.5923558 6.187331 -1.360562 8.697335 -3.652852 2.59963 23.39044 5.349761 0.7269768 -13.64356 8.64391 1.96257 -16.79765 9.980033 85.38674 23.25026 -10.77193 -0 0 18.04372 -22.6987 13.79216 11.08832 4.305096 -14.86583 -3.820429 -87.63252 24.14675 15.9098 0 0 -13.36541 -1.819503 8.529741 14.95897
